<svg xmlns="http://www.w3.org/2000/svg" width="88.071" height="80" viewBox="0 0 88.071 80">
  <g id="support" transform="translate(0 -4.078)">
    <g id="Grupo_9553" data-name="Grupo 9553" transform="translate(80.35 56.534)">
      <g id="Grupo_9552" data-name="Grupo 9552">
        <path id="Trazado_4828" data-name="Trazado 4828" d="M88.486,61.859,84.243,57.65a1.739,1.739,0,0,0-2.449,2.469l4.243,4.208a1.739,1.739,0,0,0,2.449-2.469Z" transform="translate(-81.28 -57.146)" fill="#535657"/>
      </g>
    </g>
    <g id="Grupo_9555" data-name="Grupo 9555" transform="translate(76.02 52.303)">
      <g id="Grupo_9554" data-name="Grupo 9554">
        <path id="Trazado_4829" data-name="Trazado 4829" d="M79.919,53.344a1.739,1.739,0,0,0-2.459,0l0,0a1.739,1.739,0,1,0,2.462,0Z" transform="translate(-76.949 -52.835)" fill="#535657"/>
      </g>
    </g>
    <g id="Grupo_9557" data-name="Grupo 9557" transform="translate(0 4.078)">
      <g id="Grupo_9556" data-name="Grupo 9556">
        <path id="Trazado_4830" data-name="Trazado 4830" d="M64.376,60.763l16.679-16.69a6.479,6.479,0,0,0-3.125-10.9,6.485,6.485,0,0,0-4.776-9.122,6.472,6.472,0,0,0-5.046-8.415A6.483,6.483,0,0,0,58.861,7.9L58.7,7.726a11.47,11.47,0,0,0-8.372-3.648h-13.5A1.72,1.72,0,0,0,35.1,5.8V8.055a7.82,7.82,0,0,0,.445,2.608,6.482,6.482,0,0,0-8.636,8.025A6.484,6.484,0,0,0,21.858,27.1a6.428,6.428,0,0,0-3.476,1.8,6.5,6.5,0,0,0-1.3,7.313,6.485,6.485,0,0,0-3.126,10.9l3.43,3.432L.5,67.453a1.72,1.72,0,1,0,2.431,2.433l17.05-17.061a6.476,6.476,0,0,0,9.672-5.9c.087,0,.174.006.261.006a6.476,6.476,0,0,0,6.479-6.48c0-.088,0-.175-.006-.262.086,0,.172.006.259.006a6.476,6.476,0,0,0,6.479-6.48c0-.088,0-.175-.006-.262.086,0,.172.006.259.006a6.48,6.48,0,0,0,5.011-10.59L59.8,11.452a3.041,3.041,0,0,1,4.3,4.3l-1.683,1.684-6.106,6.11a1.72,1.72,0,1,0,2.431,2.433l6.106-6.11a3.041,3.041,0,1,1,4.3,4.3L67.47,25.858l-4.423,4.426a1.72,1.72,0,1,0,2.431,2.433L69.9,28.291a3.041,3.041,0,0,1,4.3,4.3L71.891,34.9l-2.113,2.114a1.72,1.72,0,1,0,2.431,2.433l2.114-2.116a3.041,3.041,0,0,1,4.3,4.3L61.943,58.331a23.285,23.285,0,0,1-15.674,6.832,1.718,1.718,0,0,0-1.156.505L29.705,81.143a1.72,1.72,0,1,0,2.436,2.429L43.474,72.19a15.973,15.973,0,0,0,9.706,2.5l8.87,8.876a1.72,1.72,0,1,0,2.431-2.433l-9.431-9.438a1.72,1.72,0,0,0-1.356-.5l-.545.045a12.544,12.544,0,0,1-7.175-1.563l1.1-1.11A26.708,26.708,0,0,0,64.376,60.763ZM25.337,49.34a3.039,3.039,0,0,1-4.3,0l-4.646-4.649a3.041,3.041,0,1,1,4.3-4.3l4.646,4.649A3.048,3.048,0,0,1,25.337,49.34ZM32.068,42.6a3.043,3.043,0,0,1-4.3,0l-4.646-4.649-2.31-2.312a3.041,3.041,0,1,1,4.3-4.3l6.956,6.96h0a3.044,3.044,0,0,1,0,4.3ZM38.8,35.868a3.043,3.043,0,0,1-4.3,0l-8.639-8.644a3.041,3.041,0,0,1,4.3-4.3L34.1,26.86l4.7,4.706h0a3.045,3.045,0,0,1,0,4.3Zm6.731-6.736a3.043,3.043,0,0,1-4.3,0l-8.639-8.644,0,0L30.909,18.8a3.041,3.041,0,0,1,4.3-4.3L45.53,24.83a3.044,3.044,0,0,1,0,4.3Zm.452-8.716L41.26,15.691a7.862,7.862,0,0,0,1.646.175h.038l4.718-.022a1.72,1.72,0,0,0-.008-3.441h-.008l-4.718.022h-.021a4.368,4.368,0,0,1-4.367-4.37V7.519H50.322a8.022,8.022,0,0,1,5.855,2.551l.07.075Z" transform="translate(0 -4.078)" fill="#535657"/>
      </g>
    </g>
  </g>
</svg>
