<svg xmlns="http://www.w3.org/2000/svg" width="80" height="80" viewBox="0 0 80 80">
  <g id="develop" transform="translate(0 -0.022)">
    <g id="Grupo_9592" data-name="Grupo 9592" transform="translate(0 30.4)">
      <g id="Grupo_9591" data-name="Grupo 9591">
        <path id="Trazado_4851" data-name="Trazado 4851" d="M78.438,227.829A1.569,1.569,0,0,0,80,226.254V223.5a10.8,10.8,0,0,0-5.894-9.629,8.459,8.459,0,0,0,2.973-6.447v-1.964a8.379,8.379,0,1,0-16.757,0v1.964a8.453,8.453,0,0,0,2.3,5.8,20.494,20.494,0,0,0-7.665,3.5L40.8,227.135a5.736,5.736,0,0,0-.8.72,5.745,5.745,0,0,0-.8-.72L25.047,216.727a20.494,20.494,0,0,0-7.665-3.5,8.453,8.453,0,0,0,2.3-5.8v-1.964a8.379,8.379,0,1,0-16.757,0v1.964a8.459,8.459,0,0,0,2.973,6.447A10.8,10.8,0,0,0,0,223.5v21.559a1.569,1.569,0,0,0,1.562,1.575H21.037a1.569,1.569,0,0,0,1.562-1.575V230.591l10.223,6.215a5.658,5.658,0,0,0,5.811.083A5.859,5.859,0,0,0,40,235.814a5.851,5.851,0,0,0,1.367,1.076,5.657,5.657,0,0,0,5.81-.083L57.4,230.591v14.466a1.569,1.569,0,0,0,1.562,1.575H78.437A1.569,1.569,0,0,0,80,245.058v-5.692a1.563,1.563,0,1,0-3.125,0v4.117H60.526V228.943a1.613,1.613,0,0,0-.02-.239l1.7-1.033a1.583,1.583,0,0,0,.531-2.163,1.555,1.555,0,0,0-2.145-.536l-15.027,9.136a2.59,2.59,0,0,1-2.66.038,2.634,2.634,0,0,1-1.341-2.317,2.676,2.676,0,0,1,1.084-2.15l14.149-10.408a17.353,17.353,0,0,1,10.35-3.4h2.164a7.606,7.606,0,0,1,7.566,7.629v2.755A1.569,1.569,0,0,0,78.438,227.829ZM6.046,205.459a5.254,5.254,0,1,1,10.507,0v1.964a5.254,5.254,0,1,1-10.507,0ZM37.1,234.146a2.591,2.591,0,0,1-2.66-.038l-15.027-9.136a1.555,1.555,0,0,0-2.145.536,1.583,1.583,0,0,0,.531,2.163l1.7,1.031a1.607,1.607,0,0,0-.018.241v14.539H3.125V223.5a7.606,7.606,0,0,1,7.566-7.629h2.164a17.353,17.353,0,0,1,10.35,3.4L37.354,229.68a2.676,2.676,0,0,1,1.084,2.15A2.634,2.634,0,0,1,37.1,234.146Zm36.857-26.724a5.254,5.254,0,1,1-10.507,0v-1.964a5.254,5.254,0,1,1,10.507,0Z" transform="translate(0 -197.011)" fill="#535657"/>
      </g>
    </g>
    <g id="Grupo_9594" data-name="Grupo 9594" transform="translate(76.849 64.431)">
      <g id="Grupo_9593" data-name="Grupo 9593">
        <path id="Trazado_4852" data-name="Trazado 4852" d="M494.689,413.48a1.576,1.576,0,1,0,.462,1.114A1.586,1.586,0,0,0,494.689,413.48Z" transform="translate(-492 -413.02)" fill="#535657"/>
      </g>
    </g>
    <g id="Grupo_9596" data-name="Grupo 9596" transform="translate(16.532 0.022)">
      <g id="Grupo_9595" data-name="Grupo 9595" transform="translate(0 0)">
        <path id="Trazado_4853" data-name="Trazado 4853" d="M155.418.022h-5.2a1.575,1.575,0,0,0,0,3.151h1.4L133.2,21.584,121.155,9.536a1.575,1.575,0,0,0-2.228,0L107.7,20.762a1.576,1.576,0,0,0,2.228,2.228l10.112-10.113,12.048,12.048a1.575,1.575,0,0,0,2.228,0L153.842,5.4V6.8a1.575,1.575,0,1,0,3.151,0V1.6A1.576,1.576,0,0,0,155.418.022Z" transform="translate(-107.239 -0.022)" fill="#535657"/>
      </g>
    </g>
    <g id="Grupo_9598" data-name="Grupo 9598" transform="translate(12.919 24.072)">
      <g id="Grupo_9597" data-name="Grupo 9597">
        <path id="Trazado_4854" data-name="Trazado 4854" d="M84.689,154.443a1.574,1.574,0,1,0,.462,1.114A1.587,1.587,0,0,0,84.689,154.443Z" transform="translate(-82 -153.981)" fill="#535657"/>
      </g>
    </g>
  </g>
</svg>
