<svg xmlns="http://www.w3.org/2000/svg" width="93.476" height="80" viewBox="0 0 93.476 80">
  <g id="friendship" transform="translate(0 -36.907)">
    <g id="Grupo_9586" data-name="Grupo 9586" transform="translate(10.215 53.319)">
      <g id="Grupo_9585" data-name="Grupo 9585">
        <path id="Trazado_4848" data-name="Trazado 4848" d="M59.047,127.335a1.828,1.828,0,1,0,.535,1.291A1.838,1.838,0,0,0,59.047,127.335Z" transform="translate(-55.929 -126.802)" fill="#535657"/>
      </g>
    </g>
    <g id="Grupo_9588" data-name="Grupo 9588" transform="translate(69.345 92.197)">
      <g id="Grupo_9587" data-name="Grupo 9587">
        <path id="Trazado_4849" data-name="Trazado 4849" d="M382.947,340.288a1.825,1.825,0,1,0,.535,1.291A1.838,1.838,0,0,0,382.947,340.288Z" transform="translate(-379.829 -339.755)" fill="#535657"/>
      </g>
    </g>
    <g id="Grupo_9590" data-name="Grupo 9590" transform="translate(0 36.907)">
      <g id="Grupo_9589" data-name="Grupo 9589">
        <path id="Trazado_4850" data-name="Trazado 4850" d="M91.661,38.725a6.208,6.208,0,0,0-8.779,0L71.523,50.084a8.59,8.59,0,0,0,.213-1.9V45.854a8.6,8.6,0,1,0-17.2,0v2.335a8.548,8.548,0,0,0,1.572,4.947H37.365a8.549,8.549,0,0,0,1.572-4.947V45.854a8.6,8.6,0,1,0-17.2,0v2.335a8.592,8.592,0,0,0,.213,1.9L10.595,38.725A6.208,6.208,0,0,0,1.815,47.5l4.64,4.64a1.826,1.826,0,1,0,2.582-2.582L4.4,44.923a2.556,2.556,0,0,1,3.615-3.615L20.9,54.192a8.8,8.8,0,0,0,6.265,2.6H66.314a8.8,8.8,0,0,0,6.266-2.6L85.464,41.307a2.556,2.556,0,0,1,3.615,3.615l-19.2,19.2a1.826,1.826,0,0,0-.535,1.291V76.49H56.93V63.726A1.826,1.826,0,0,0,55.1,61.9H38.372a1.826,1.826,0,0,0-1.826,1.826V76.49H24.131V65.412a1.826,1.826,0,0,0-.535-1.291L17.375,57.9a1.826,1.826,0,1,0-2.582,2.582l5.687,5.687v48.912a1.826,1.826,0,0,0,1.826,1.826H38.373a1.826,1.826,0,0,0,1.826-1.826V65.551h13.08v49.529a1.826,1.826,0,0,0,1.826,1.826H71.171A1.826,1.826,0,0,0,73,115.081V101.448a1.826,1.826,0,1,0-3.652,0v11.806H64.964V89.331a1.826,1.826,0,0,0-3.652,0v23.924H56.93V80.141H69.345v7.187a1.826,1.826,0,1,0,3.652,0V66.169L91.661,47.5A6.215,6.215,0,0,0,91.661,38.725ZM35.286,48.189a4.947,4.947,0,1,1-9.894,0V45.854a4.947,4.947,0,1,1,9.894,0Zm32.8,0a4.947,4.947,0,1,1-9.894,0V45.854a4.947,4.947,0,1,1,9.894,0ZM36.547,113.255H32.165V89.331a1.826,1.826,0,0,0-3.652,0v23.924H24.131V80.141H36.547Z" transform="translate(0 -36.907)" fill="#535657"/>
      </g>
    </g>
  </g>
</svg>
