<svg xmlns="http://www.w3.org/2000/svg" width="71.563" height="80" viewBox="0 0 71.563 80">
  <g id="help" transform="translate(-4.061)">
    <g id="Grupo_9559" data-name="Grupo 9559" transform="translate(4.061 62.752)">
      <g id="Grupo_9558" data-name="Grupo 9558">
        <path id="Trazado_4835" data-name="Trazado 4835" d="M6.628,60.747a1.5,1.5,0,1,0,.441,1.063A1.515,1.515,0,0,0,6.628,60.747Z" transform="translate(-4.061 -60.307)" fill="#535657"/>
      </g>
    </g>
    <g id="Grupo_9561" data-name="Grupo 9561" transform="translate(4.061)">
      <g id="Grupo_9560" data-name="Grupo 9560">
        <path id="Trazado_4836" data-name="Trazado 4836" d="M69.471,18.123l0,0L59.052,11.085A9.42,9.42,0,0,0,52.4,9.573a7.425,7.425,0,0,0,.155-1.508,7.311,7.311,0,0,0-2.155-5.2l-.706-.706A7.359,7.359,0,0,0,39.285,12.562l.706.707a7.32,7.32,0,0,0,3.125,1.858L32.6,23.047a4.352,4.352,0,0,0-1.44,1.9,4.342,4.342,0,0,0-2.325.164L18.654,28.743a7.318,7.318,0,0,0,.578-2.858v-1a7.359,7.359,0,1,0-14.717,0v1A7.365,7.365,0,0,0,8.453,32.4a7.205,7.205,0,0,0-4.392,6.622V57.656a1.563,1.563,0,0,0,3.125,0V54.8h6.163a1.555,1.555,0,0,0,.878-.27l7.065-4.8a4.175,4.175,0,0,1,6.519,3.454v9.683l-4.375,1.751V56.8a1.562,1.562,0,0,0-2.365-1.341l-7.917,4.736A3.291,3.291,0,0,0,11.561,63V76.875H7.186V70.316a1.563,1.563,0,0,0-3.125,0v8.122A1.563,1.563,0,0,0,5.623,80h7.5a1.563,1.563,0,0,0,1.563-1.562V63a.151.151,0,0,1,.073-.129l5.552-3.321V78.438A1.563,1.563,0,0,0,21.873,80H74.061a1.563,1.563,0,0,0,1.563-1.562V29.488A13.526,13.526,0,0,0,69.471,18.123ZM42.2,11.059l-.706-.707a4.234,4.234,0,1,1,5.987-5.987l.706.706A4.234,4.234,0,0,1,42.2,11.059ZM34.484,25.543l15.5-11.679a6.3,6.3,0,0,1,7.318-.189l8.662,5.851-7.645,6.15-6-4.05a1.562,1.562,0,0,0-1.467-.151L35.7,27.682a1.247,1.247,0,0,1-1.533-.51l0-.007A1.238,1.238,0,0,1,34.484,25.543Zm-26.845.342v-1a4.234,4.234,0,1,1,8.467,0v1a4.234,4.234,0,1,1-8.467,0Zm8.921,15.1v8.176l-3.692,2.506H7.186V39.019a4.073,4.073,0,0,1,2.7-3.829l20-7.139a1.239,1.239,0,0,1,1.118,2.188L17.238,39.7A1.562,1.562,0,0,0,16.561,40.99Zm7.076,4.9a7.27,7.27,0,0,0-3.951,1.163V41.812l13.091-9a4.338,4.338,0,0,0,1.59-2.012,4.4,4.4,0,0,0,.884.091,4.308,4.308,0,0,0,1.635-.321l14.384-5.89,6.209,4.194a5.667,5.667,0,0,1,2.208,4.473V45.625H56.613a1.563,1.563,0,0,0-.955.326l-15.532,12-9.19,3.671v-8.44A7.308,7.308,0,0,0,23.636,45.885ZM72.5,76.875H23.436v-8.89l18.052-7.211a1.561,1.561,0,0,0,.376-.215L57.146,48.75H72.5Zm0-31.25H69.373V33.3a1.563,1.563,0,0,0-3.125,0V45.625H62.811V33.35a8.812,8.812,0,0,0-2.051-5.626l7.883-6.341A10.407,10.407,0,0,1,72.5,29.488Z" transform="translate(-4.061)" fill="#535657"/>
      </g>
    </g>
    <g id="Grupo_9563" data-name="Grupo 9563" transform="translate(61.887 55.372)">
      <g id="Grupo_9562" data-name="Grupo 9562">
        <path id="Trazado_4837" data-name="Trazado 4837" d="M64.217,52.988H60.708a1.5,1.5,0,0,0,0,3.008h2.005v5.815a1.5,1.5,0,0,0,3.008,0V54.491A1.5,1.5,0,0,0,64.217,52.988Z" transform="translate(-59.204 -52.988)" fill="#535657"/>
      </g>
    </g>
    <g id="Grupo_9565" data-name="Grupo 9565" transform="translate(65.396 69.175)">
      <g id="Grupo_9564" data-name="Grupo 9564">
        <path id="Trazado_4838" data-name="Trazado 4838" d="M65.28,66.616a1.5,1.5,0,1,0,.441,1.063A1.515,1.515,0,0,0,65.28,66.616Z" transform="translate(-62.713 -66.175)" fill="#535657"/>
      </g>
    </g>
  </g>
</svg>
