<svg xmlns="http://www.w3.org/2000/svg" width="70.563" height="80" viewBox="0 0 70.563 80">
  <g id="benefit" transform="translate(-14.034 -7.353)">
    <path id="Trazado_4904" data-name="Trazado 4904" d="M82.747,78.1a5.836,5.836,0,0,0-7.767-.236L63.045,87.016a8.742,8.742,0,0,1-2.226,1.235A5.6,5.6,0,0,0,55.831,80.1H41.65a13.189,13.189,0,0,0-8.976-4.789,11.6,11.6,0,0,0-6.3,1.232V71.931a1.235,1.235,0,0,0-1.236-1.236H15.27a1.235,1.235,0,0,0-1.236,1.236v32.159a1.235,1.235,0,0,0,1.236,1.236h9.865a1.235,1.235,0,0,0,1.236-1.236v-2.564L46.5,105.5a24.245,24.245,0,0,0,20.594-5.414L82.551,86.83a5.865,5.865,0,0,0,.2-8.727ZM23.9,102.854H16.505V73.166H23.9Zm57.042-17.9L65.484,98.209a21.791,21.791,0,0,1-18.507,4.866L26.37,99.006V79.454a8.954,8.954,0,0,1,6.1-1.685,10.914,10.914,0,0,1,7.645,4.34,1.235,1.235,0,0,0,.96.458H55.831a3.128,3.128,0,0,1,0,6.256H41.069a1.236,1.236,0,0,0,0,2.471H57.7a11.329,11.329,0,0,0,6.849-2.317l11.982-9.19a3.4,3.4,0,1,1,4.411,5.168Z" transform="translate(0 -18.617)" fill="#535657"/>
    <path id="Trazado_4905" data-name="Trazado 4905" d="M55.054,59.552h5.507a.141.141,0,0,1,.141.141V65.2a2.613,2.613,0,0,0,2.613,2.613h2.9A2.613,2.613,0,0,0,68.83,65.2V59.693a.141.141,0,0,1,.141-.141h5.507a2.613,2.613,0,0,0,2.613-2.613v-2.9a2.613,2.613,0,0,0-2.613-2.613H68.971a.141.141,0,0,1-.141-.141V45.777a2.613,2.613,0,0,0-2.613-2.613h-2.9A2.613,2.613,0,0,0,60.7,45.777v5.507a.141.141,0,0,1-.141.141H55.053a2.613,2.613,0,0,0-2.613,2.613v2.9a2.613,2.613,0,0,0,2.614,2.613Zm-.141-5.514a.141.141,0,0,1,.141-.141h5.507a2.613,2.613,0,0,0,2.613-2.613V45.777a.141.141,0,0,1,.141-.141h2.9a.141.141,0,0,1,.141.141v5.507A2.613,2.613,0,0,0,68.971,53.9h5.507a.141.141,0,0,1,.141.141v2.9a.141.141,0,0,1-.141.141H68.971a2.613,2.613,0,0,0-2.613,2.613V65.2a.141.141,0,0,1-.141.141h-2.9a.141.141,0,0,1-.141-.141V59.694a2.613,2.613,0,0,0-2.613-2.613H55.053a.141.141,0,0,1-.141-.141Z" transform="translate(-11.288 -10.525)" fill="#535657"/>
    <path id="Trazado_4906" data-name="Trazado 4906" d="M18.953,37.081H24.46a.141.141,0,0,1,.141.141V42.73a2.613,2.613,0,0,0,2.613,2.613h2.9a2.613,2.613,0,0,0,2.613-2.613V37.222a.141.141,0,0,1,.141-.141h5.507a2.613,2.613,0,0,0,2.613-2.613v-2.9a2.613,2.613,0,0,0-2.613-2.613H32.869a.141.141,0,0,1-.141-.141v-5.5A2.613,2.613,0,0,0,30.116,20.7h-2.9A2.613,2.613,0,0,0,24.6,23.313V28.82a.141.141,0,0,1-.141.141H18.953a2.613,2.613,0,0,0-2.613,2.613v2.895A2.613,2.613,0,0,0,18.953,37.081Zm-.141-5.513a.141.141,0,0,1,.141-.141H24.46a2.613,2.613,0,0,0,2.613-2.613v-5.5a.141.141,0,0,1,.141-.141h2.9a.141.141,0,0,1,.141.141V28.82a2.613,2.613,0,0,0,2.613,2.613h5.507a.141.141,0,0,1,.141.141v2.895a.141.141,0,0,1-.141.141H32.869a2.613,2.613,0,0,0-2.613,2.613V42.73a.141.141,0,0,1-.141.141h-2.9a.141.141,0,0,1-.141-.141V37.222A2.613,2.613,0,0,0,24.46,34.61H18.953a.141.141,0,0,1-.141-.141Z" transform="translate(-0.678 -3.923)" fill="#535657"/>
    <path id="Trazado_4907" data-name="Trazado 4907" d="M79.367,23.741h5.507a.141.141,0,0,1,.141.141V29.39A2.613,2.613,0,0,0,87.628,32h2.9a2.613,2.613,0,0,0,2.613-2.613V23.882a.141.141,0,0,1,.141-.141h5.507a2.613,2.613,0,0,0,2.613-2.613v-2.9a2.613,2.613,0,0,0-2.613-2.613H93.283a.141.141,0,0,1-.141-.141V9.966A2.613,2.613,0,0,0,90.53,7.353h-2.9a2.613,2.613,0,0,0-2.613,2.613v5.507a.141.141,0,0,1-.141.141H79.367a2.613,2.613,0,0,0-2.613,2.613v2.9A2.613,2.613,0,0,0,79.367,23.741Zm-.141-5.514a.141.141,0,0,1,.141-.141h5.507a2.613,2.613,0,0,0,2.613-2.613V9.966a.141.141,0,0,1,.141-.141h2.9a.141.141,0,0,1,.141.141v5.507a2.613,2.613,0,0,0,2.613,2.613h5.507a.141.141,0,0,1,.141.141v2.9a.141.141,0,0,1-.141.141H93.283a2.613,2.613,0,0,0-2.613,2.613v5.507a.141.141,0,0,1-.141.141h-2.9a.141.141,0,0,1-.141-.141V23.883a2.613,2.613,0,0,0-2.613-2.613H79.367a.141.141,0,0,1-.141-.141Z" transform="translate(-18.434)" fill="#535657"/>
  </g>
</svg>
