<svg id="protect" xmlns="http://www.w3.org/2000/svg" width="80" height="80" viewBox="0 0 80 80">
  <g id="Grupo_9567" data-name="Grupo 9567" transform="translate(18.982 75.286)">
    <g id="Grupo_9566" data-name="Grupo 9566">
      <path id="Trazado_4839" data-name="Trazado 4839" d="M124.175,482.379a1.566,1.566,0,1,0,.459,1.108A1.572,1.572,0,0,0,124.175,482.379Z" transform="translate(-121.5 -481.92)" fill="#535657"/>
    </g>
  </g>
  <g id="Grupo_9569" data-name="Grupo 9569" transform="translate(5.053 56.853)">
    <g id="Grupo_9568" data-name="Grupo 9568">
      <path id="Trazado_4840" data-name="Trazado 4840" d="M34.977,364.407a1.567,1.567,0,0,0-2.215-.085l-.013.013a1.567,1.567,0,0,0,2.13,2.3l.013-.013A1.567,1.567,0,0,0,34.977,364.407Z" transform="translate(-32.247 -363.905)" fill="#535657"/>
    </g>
  </g>
  <g id="Grupo_9571" data-name="Grupo 9571" transform="translate(25.227 51.665)">
    <g id="Grupo_9570" data-name="Grupo 9570">
      <path id="Trazado_4841" data-name="Trazado 4841" d="M211.812,334.271a6.653,6.653,0,0,0-8.614-2.38l-15.871,7.953a1.567,1.567,0,1,0,1.4,2.8l15.871-7.953a3.536,3.536,0,0,1,3.278,6.264L186.545,352.6a18.03,18.03,0,0,1-8.613,2.2h-13.9a1.567,1.567,0,0,0,0,3.134h13.9a21.176,21.176,0,0,0,10.115-2.581l21.336-11.645a6.67,6.67,0,0,0,2.43-9.437Z" transform="translate(-162.463 -331.18)" fill="#535657"/>
    </g>
  </g>
  <g id="Grupo_9573" data-name="Grupo 9573" transform="translate(0 49.6)">
    <g id="Grupo_9572" data-name="Grupo 9572">
      <path id="Trazado_4842" data-name="Trazado 4842" d="M44.245,328.924,37.7,323.735a19.362,19.362,0,0,0-11.975-4.168H14.5A1.567,1.567,0,0,0,12.928,318H1.567a1.567,1.567,0,1,0,0,3.134h9.794v24.132H1.567a1.567,1.567,0,0,0,0,3.134H12.928a1.567,1.567,0,0,0,1.567-1.567V322.7H25.722a16.214,16.214,0,0,1,10.029,3.491l6.549,5.188a2.737,2.737,0,0,1-3.214,4.425l-8.367-5.556a1.567,1.567,0,1,0-1.734,2.611l8.367,5.556a5.871,5.871,0,0,0,6.894-9.493Z" transform="translate(0 -318)" fill="#535657"/>
    </g>
  </g>
  <g id="Grupo_9575" data-name="Grupo 9575" transform="translate(33.527)">
    <g id="Grupo_9574" data-name="Grupo 9574">
      <path id="Trazado_4843" data-name="Trazado 4843" d="M260.341,27.266h-9.794V3.134h9.794a1.567,1.567,0,1,0,0-3.134H248.98a1.567,1.567,0,0,0-1.567,1.567V25.7H236.186a16.214,16.214,0,0,1-10.029-3.491l-6.549-5.188a2.737,2.737,0,0,1,3.214-4.425l8.367,5.556a1.567,1.567,0,1,0,1.734-2.611l-8.367-5.556a5.871,5.871,0,0,0-6.894,9.493l6.549,5.188a19.362,19.362,0,0,0,11.975,4.168h11.227A1.567,1.567,0,0,0,248.98,30.4h11.361a1.567,1.567,0,1,0,0-3.134Z" transform="translate(-215.435)" fill="#535657"/>
    </g>
  </g>
  <g id="Grupo_9577" data-name="Grupo 9577" transform="translate(58.431 1.58)">
    <g id="Grupo_9576" data-name="Grupo 9576">
      <path id="Trazado_4844" data-name="Trazado 4844" d="M376.675,10.539a1.568,1.568,0,1,0,.459,1.108A1.578,1.578,0,0,0,376.675,10.539Z" transform="translate(-374 -10.08)" fill="#535657"/>
    </g>
  </g>
  <g id="Grupo_9579" data-name="Grupo 9579" transform="translate(4.382 1.58)">
    <g id="Grupo_9578" data-name="Grupo 9578">
      <path id="Trazado_4845" data-name="Trazado 4845" d="M77.015,10.085H62.884a21.176,21.176,0,0,0-10.115,2.581L31.434,24.31a6.669,6.669,0,0,0,6.183,11.817l15.871-7.953a1.567,1.567,0,1,0-1.4-2.8L36.213,33.326a3.536,3.536,0,0,1-3.278-6.264L54.271,15.417a18.03,18.03,0,0,1,8.613-2.2H77.015a1.567,1.567,0,0,0,0-3.134Z" transform="translate(-27.961 -10.085)" fill="#535657"/>
    </g>
  </g>
  <g id="Grupo_9581" data-name="Grupo 9581" transform="translate(72.48 19.318)">
    <g id="Grupo_9580" data-name="Grupo 9580">
      <path id="Trazado_4846" data-name="Trazado 4846" d="M466.748,124.159a1.567,1.567,0,0,0-2.214-.1l-.014.013a1.567,1.567,0,0,0,2.117,2.311l.014-.013A1.567,1.567,0,0,0,466.748,124.159Z" transform="translate(-464.012 -123.65)" fill="#535657"/>
    </g>
  </g>
  <g id="Grupo_9583" data-name="Grupo 9583" transform="translate(28.121 30.9)">
    <g id="Grupo_9582" data-name="Grupo 9582">
      <path id="Trazado_4847" data-name="Trazado 4847" d="M196.413,197.96a7.468,7.468,0,0,0-4.339,1.4,7.468,7.468,0,0,0-4.339-1.4,7.627,7.627,0,0,0-7.54,7.694c0,2.476,1.864,5.288,5.7,8.6a50.37,50.37,0,0,0,5.342,3.994,1.567,1.567,0,0,0,1.676,0,50.4,50.4,0,0,0,5.342-3.994c3.835-3.309,5.7-6.121,5.7-8.6A7.627,7.627,0,0,0,196.413,197.96Zm-4.339,17.089c-3.882-2.612-8.745-6.9-8.745-9.4a4.49,4.49,0,0,1,4.406-4.56,4.3,4.3,0,0,1,3.187,1.412,1.567,1.567,0,0,0,2.3,0,4.3,4.3,0,0,1,3.187-1.412,4.49,4.49,0,0,1,4.406,4.56C200.819,208.14,195.956,212.434,192.074,215.049Z" transform="translate(-180.195 -197.96)" fill="#535657"/>
    </g>
  </g>
</svg>
