<svg id="bundesbau-logo" xmlns="http://www.w3.org/2000/svg" width="176" height="33.941" viewBox="0 0 176 33.941">
  <path id="Trazado_4779" data-name="Trazado 4779" d="M82.084,31.916a4.789,4.789,0,0,1-4.709,5.011c-2.891,0-4.434-1.96-4.434-4.86V24.91h-.8v7.308c0,3.246,1.862,5.472,5.162,5.472a5.064,5.064,0,0,0,4.8-3.264V37.4h.772V24.91h-.8Z" transform="translate(-12.81 -4.423)" fill="#fff"/>
  <path id="Trazado_4780" data-name="Trazado 4780" d="M58.539,23.4a5.889,5.889,0,0,0-5.525,3.76V18.106h-.789V36.189h.789v-3.4a5.818,5.818,0,0,0,5.525,3.689,6.208,6.208,0,0,0,6.208-6.51v-.053A6.208,6.208,0,0,0,58.539,23.4ZM63.861,30a5.365,5.365,0,0,1-5.41,5.72,5.587,5.587,0,0,1-5.49-5.747v-.053a5.57,5.57,0,0,1,5.49-5.747,5.461,5.461,0,0,1,5.41,5.774Z" transform="translate(-9.274 -3.215)" fill="#fff"/>
  <path id="Trazado_4781" data-name="Trazado 4781" d="M96.814,24.543a5.073,5.073,0,0,0-4.807,3.273V24.845h-.789V37.332h.789V30.3a4.8,4.8,0,0,1,4.709-5.011c2.891,0,4.434,1.96,4.434,4.86v7.184h.789V30.024C101.967,26.778,100.1,24.543,96.814,24.543Z" transform="translate(-16.198 -4.358)" fill="#fff"/>
  <path id="Trazado_4782" data-name="Trazado 4782" d="M120.681,27.1a5.827,5.827,0,0,0-5.561-3.7,6.261,6.261,0,0,0-6.208,6.519v.053a6.208,6.208,0,0,0,6.208,6.51,5.889,5.889,0,0,0,5.525-3.734v3.441h.8V18.106h-.8Zm.053,2.873a5.578,5.578,0,0,1-5.5,5.747,5.459,5.459,0,0,1-5.4-5.774V29.9c0-3.352,2.253-5.729,5.4-5.729a5.6,5.6,0,0,1,5.5,5.747Z" transform="translate(-19.338 -3.215)" fill="#fff"/>
  <path id="Trazado_4783" data-name="Trazado 4783" d="M135.124,24.543c-3.45,0-5.969,2.829-5.969,6.492v.053a6.257,6.257,0,0,0,11.308,3.964l-.594-.47a5.649,5.649,0,0,1-4.479,2.306,5.349,5.349,0,0,1-5.321-5.507h10.82v-.266C140.888,27.772,138.884,24.543,135.124,24.543Zm-5.108,6.128c.151-3.077,2.235-5.383,5.055-5.383,3.122,0,4.78,2.661,4.9,5.383Z" transform="translate(-22.934 -4.358)" fill="#fff"/>
  <path id="Trazado_4784" data-name="Trazado 4784" d="M151.95,30.583c-2.031-.568-3.8-1.135-3.8-2.661v-.053c0-1.384,1.366-2.448,3.423-2.448A7.1,7.1,0,0,1,155.55,26.7l.443-.674a8.133,8.133,0,0,0-4.381-1.384c-2.554,0-4.266,1.41-4.266,3.273v.044c0,2.084,2,2.732,4.337,3.4,1.907.514,3.787,1.064,3.787,2.82v.053c0,1.534-1.552,2.6-3.548,2.6a7.68,7.68,0,0,1-4.656-1.712l-.47.621a8.2,8.2,0,0,0,5.082,1.836c2.5,0,4.434-1.366,4.434-3.414V34.1C156.286,31.922,154.229,31.2,151.95,30.583Z" transform="translate(-26.067 -4.375)" fill="#fff"/>
  <path id="Trazado_4785" data-name="Trazado 4785" d="M169.761,23.4a5.889,5.889,0,0,0-5.525,3.76V18.106h-.789V36.189h.789v-3.4a5.818,5.818,0,0,0,5.525,3.689,6.208,6.208,0,0,0,6.164-6.51v-.053a6.208,6.208,0,0,0-6.164-6.519Zm5.321,6.6c0,3.344-2.253,5.72-5.4,5.72a5.6,5.6,0,0,1-5.5-5.747v-.053a5.578,5.578,0,0,1,5.5-5.747,5.454,5.454,0,0,1,5.4,5.774Z" transform="translate(-29.023 -3.215)" fill="#fff"/>
  <path id="Trazado_4786" data-name="Trazado 4786" d="M187.946,24.67a9.809,9.809,0,0,0-4.434,1.082l.3.7a8.869,8.869,0,0,1,4.062-1.047c2.776,0,4.434,1.392,4.434,4.213v.843a14.633,14.633,0,0,0-4.434-.692c-3.175,0-5.525,1.41-5.525,4.018v.044c0,2.528,2.324,3.814,4.727,3.814a5.6,5.6,0,0,0,5.259-2.891v2.6h.789V29.575a4.958,4.958,0,0,0-1.233-3.547,5.428,5.428,0,0,0-3.947-1.357Zm4.434,8.071c0,2.235-2.208,4.168-5.233,4.168-2.075,0-3.938-1.073-3.938-3.122v-.053c0-2.058,1.907-3.219,4.656-3.219a14.376,14.376,0,0,1,4.514.692Z" transform="translate(-32.38 -4.379)" fill="#fff"/>
  <path id="Trazado_4787" data-name="Trazado 4787" d="M210.863,24.91v7.006a4.8,4.8,0,0,1-4.709,5.011c-2.9,0-4.434-1.96-4.434-4.86V24.91h-.789v7.308c0,3.246,1.862,5.472,5.153,5.472a5.064,5.064,0,0,0,4.807-3.264V37.4h.789V24.91Z" transform="translate(-35.679 -4.423)" fill="#fff"/>
  <path id="Trazado_4788" data-name="Trazado 4788" d="M0,7.538,3.769,3.769V0L0,3.769Z" fill="#fff"/>
  <path id="Trazado_4789" data-name="Trazado 4789" d="M10.7,7.538l3.769-3.769V0L10.7,3.769Z" transform="translate(-1.9)" fill="#fff"/>
  <path id="Trazado_4790" data-name="Trazado 4790" d="M21.395,7.538l3.769-3.769V0L21.395,3.769Z" transform="translate(-3.799)" fill="#fff"/>
  <path id="Trazado_4791" data-name="Trazado 4791" d="M32.092,7.538,35.87,3.769V0L32.092,3.769Z" transform="translate(-5.699)" fill="#fff"/>
  <path id="Trazado_4792" data-name="Trazado 4792" d="M0,18.245l3.769-3.778V10.7L0,14.467Z" transform="translate(0 -1.9)" fill="#fff"/>
  <path id="Trazado_4793" data-name="Trazado 4793" d="M10.7,18.245l3.769-3.778V10.7L10.7,14.467Z" transform="translate(-1.9 -1.9)" fill="#fff"/>
  <path id="Trazado_4794" data-name="Trazado 4794" d="M21.395,18.245l3.769-3.778V10.7l-3.769,3.769Z" transform="translate(-3.799 -1.9)" fill="#fff"/>
  <path id="Trazado_4795" data-name="Trazado 4795" d="M32.092,18.245l3.778-3.778V10.7l-3.778,3.769Z" transform="translate(-5.699 -1.9)" fill="#fff"/>
  <path id="Trazado_4796" data-name="Trazado 4796" d="M0,28.942l3.769-3.778V21.395L0,25.164Z" transform="translate(0 -3.799)" fill="#fff"/>
  <path id="Trazado_4797" data-name="Trazado 4797" d="M10.7,28.942l3.769-3.778V21.395L10.7,25.164Z" transform="translate(-1.9 -3.799)" fill="#fff"/>
  <path id="Trazado_4798" data-name="Trazado 4798" d="M21.395,28.942l3.769-3.778V21.395l-3.769,3.769Z" transform="translate(-3.799 -3.799)" fill="#fff"/>
  <path id="Trazado_4799" data-name="Trazado 4799" d="M32.092,28.942l3.778-3.778V21.395l-3.778,3.769Z" transform="translate(-5.699 -3.799)" fill="#fff"/>
  <path id="Trazado_4800" data-name="Trazado 4800" d="M0,39.639,3.769,35.87V32.092L0,35.87Z" transform="translate(0 -5.699)" fill="#fff"/>
  <path id="Trazado_4801" data-name="Trazado 4801" d="M10.7,39.639l3.769-3.769V32.092L10.7,35.87Z" transform="translate(-1.9 -5.699)" fill="#fff"/>
  <path id="Trazado_4802" data-name="Trazado 4802" d="M21.395,39.639l3.769-3.769V32.092L21.395,35.87Z" transform="translate(-3.799 -5.699)" fill="#fff"/>
  <path id="Trazado_4803" data-name="Trazado 4803" d="M32.092,39.639,35.87,35.87V32.092L32.092,35.87Z" transform="translate(-5.699 -5.699)" fill="#fff"/>
</svg>
