<svg xmlns="http://www.w3.org/2000/svg" width="25" height="25" viewBox="0 0 25 25">
  <path id="letter-c_1_" data-name="letter-c (1)" d="M18.5,6A12.5,12.5,0,1,0,31,18.5,12.5,12.5,0,0,0,18.5,6Zm.152,19.394a6.769,6.769,0,0,1-6.978-6.884,6.773,6.773,0,0,1,6.978-6.905,6.517,6.517,0,0,1,6.637,5.6H21.626a3.1,3.1,0,0,0-2.966-2.22,3.284,3.284,0,0,0-3.222,3.527,3.263,3.263,0,0,0,3.222,3.5A3.019,3.019,0,0,0,21.628,19.6h3.7a6.554,6.554,0,0,1-6.675,5.794Z" transform="translate(-6 -6)" fill="#fff" opacity="0.662"/>
</svg>
