<svg xmlns="http://www.w3.org/2000/svg" width="95" height="106.868" viewBox="0 0 95 106.868">
  <g id="Grupo_9550" data-name="Grupo 9550" transform="translate(-133 -1324.681)">
    <path id="Trazado_4818" data-name="Trazado 4818" d="M0,45.14,11.859,33.254V21.395L0,33.254Z" transform="translate(133 1358.701)" fill="#e7e6ec"/>
    <path id="Trazado_4819" data-name="Trazado 4819" d="M10.7,45.14,22.556,33.254V21.395L10.7,33.254Z" transform="translate(150.007 1358.701)" fill="#e7e6ec"/>
    <path id="Trazado_4820" data-name="Trazado 4820" d="M21.395,45.14,33.254,33.254V21.395L21.395,33.254Z" transform="translate(167.014 1358.701)" fill="#e7e6ec"/>
    <path id="Trazado_4821" data-name="Trazado 4821" d="M32.092,45.14,43.979,33.254V21.395L32.092,33.254Z" transform="translate(184.021 1358.701)" fill="#e7e6ec"/>
    <path id="Trazado_4822" data-name="Trazado 4822" d="M0,55.838,11.859,43.979V32.092L0,43.979Z" transform="translate(133 1375.711)" fill="#e7e6ec"/>
    <path id="Trazado_4823" data-name="Trazado 4823" d="M10.7,55.838,22.556,43.979V32.092L10.7,43.979Z" transform="translate(150.007 1375.711)" fill="#e7e6ec"/>
    <path id="Trazado_4824" data-name="Trazado 4824" d="M21.395,55.838,33.254,43.979V32.092L21.395,43.979Z" transform="translate(167.014 1375.711)" fill="#e7e6ec"/>
    <path id="Trazado_4825" data-name="Trazado 4825" d="M32.092,55.838,43.979,43.979V32.092L32.092,43.979Z" transform="translate(184.021 1375.711)" fill="#e7e6ec"/>
    <path id="Trazado_4810" data-name="Trazado 4810" d="M0,23.718,11.859,11.859V0L0,11.859Z" transform="translate(133 1324.681)" fill="#e7e6ec"/>
    <path id="Trazado_4811" data-name="Trazado 4811" d="M10.7,23.718,22.556,11.859V0L10.7,11.859Z" transform="translate(150.007 1324.681)" fill="#e7e6ec"/>
    <path id="Trazado_4812" data-name="Trazado 4812" d="M21.395,23.718,33.254,11.859V0L21.395,11.859Z" transform="translate(167.014 1324.681)" fill="#e7e6ec"/>
    <path id="Trazado_4813" data-name="Trazado 4813" d="M32.092,23.718,43.979,11.859V0L32.092,11.859Z" transform="translate(184.021 1324.681)" fill="#e7e6ec"/>
    <path id="Trazado_4814" data-name="Trazado 4814" d="M0,34.443,11.859,22.556V10.7L0,22.556Z" transform="translate(133 1341.691)" fill="#e7e6ec"/>
    <path id="Trazado_4815" data-name="Trazado 4815" d="M10.7,34.443,22.556,22.556V10.7L10.7,22.556Z" transform="translate(150.007 1341.691)" fill="#e7e6ec"/>
    <path id="Trazado_4816" data-name="Trazado 4816" d="M21.395,34.443,33.254,22.556V10.7L21.395,22.556Z" transform="translate(167.014 1341.691)" fill="#e7e6ec"/>
    <path id="Trazado_4817" data-name="Trazado 4817" d="M32.092,34.443,43.979,22.556V10.7L32.092,22.556Z" transform="translate(184.021 1341.691)" fill="#e7e6ec"/>
  </g>
</svg>
