<svg id="wheel-chair" xmlns="http://www.w3.org/2000/svg" width="17.514" height="20.921" viewBox="0 0 17.514 20.921">
  <path id="Trazado_4890" data-name="Trazado 4890" d="M32.854,46.4a.542.542,0,0,0-.75.166,6.522,6.522,0,1,1-8-9.534.544.544,0,0,0-.418-1.005,7.609,7.609,0,1,0,9.338,11.123A.544.544,0,0,0,32.854,46.4Z" transform="translate(-19 -29.742)" fill="#fff"/>
  <path id="Trazado_4891" data-name="Trazado 4891" d="M45.49,24.675a.543.543,0,0,0-.465-.264H39.9l-.75-4.347h4.366a.543.543,0,0,0,0-1.087H38.964l-.3-1.712a2.176,2.176,0,1,0-1.1.016l1.339,7.765a.545.545,0,0,0,.535.451h5.274l3.1,5.17a.549.549,0,0,0,.467.264.527.527,0,0,0,.28-.079.544.544,0,0,0,.187-.744ZM37,15.174a1.087,1.087,0,1,1,1.087,1.087A1.086,1.086,0,0,1,37,15.174Z" transform="translate(-31.316 -13)" fill="#fff"/>
</svg>
