<svg xmlns="http://www.w3.org/2000/svg" width="15.131" height="18.074" viewBox="0 0 15.131 18.074">
  <g id="wheel-chair" transform="translate(-19 -13)">
    <path id="Trazado_4890" data-name="Trazado 4890" d="M30.969,44.986a.468.468,0,0,0-.648.143,5.635,5.635,0,1,1-6.915-8.237.47.47,0,1,0-.361-.869,6.574,6.574,0,1,0,8.068,9.61A.47.47,0,0,0,30.969,44.986Z" transform="translate(0 -17.592)" fill="#2f3031"/>
    <path id="Trazado_4891" data-name="Trazado 4891" d="M44.187,23.086a.469.469,0,0,0-.4-.228H39.358L38.71,19.1h3.772a.469.469,0,1,0,0-.939H38.548l-.256-1.479a1.88,1.88,0,1,0-.951.014L38.5,23.408a.471.471,0,0,0,.462.39h4.556L46.2,28.264a.474.474,0,0,0,.4.228.455.455,0,0,0,.242-.068.47.47,0,0,0,.162-.643Zm-7.338-8.209a.939.939,0,1,1,.939.939A.939.939,0,0,1,36.849,14.878Z" transform="translate(-12.941)" fill="#2f3031"/>
  </g>
</svg>
